# xmcd
#
# Track frame offsets:
#	150
#	23092
#	42053
#	57701
#	74677
#	92777
#	107601
#	124692
#	139525
#	154594
#	170116
#	186046
#	202008
#	217509
#	231996
#	250358
#
# Disc length: 3593
#
# Revision: 5
# Processed by: cddbd v1.5.1PL0 Copyright (c) Steve Scherf et al.
# Submitted via: CDex 1.40Release
# Normalized: r4:DSETVAR1,TDELIM( - )
#
DISCID=e30e0710
DTITLE=Various Artist - Fantastic Females Vol2 Disc 1
DYEAR=1900
DGENRE=Polsk Punk
TTITLE0=Tori Amos - Cornflake Girl
TTITLE1=Corrs - Radio
TTITLE2=Alison Krauss - Forget About It
TTITLE3=Felicity - We'll Never Get Along
TTITLE4=Lee Ann Womack - I Hope You Dance
TTITLE5=Jackie Bristow - Look At Me Know
TTITLE6=Bonnie Raitt - Something To Talk About
TTITLE7=Wyonna - Can't Nobody Love Me Like You Do
TTITLE8=Tamara Stewart - Way Too Easy
TTITLE9=Marie Wilson - Won't Keep A Good Girl Down
TTITLE10=Jane Saunders - Outbound Plane
TTITLE11=Fleetwood Mac - You Make Loving Fun
TTITLE12=Rebecca Lynn Howard - Out Here In The Water
TTITLE13=Melinda Schneider - (Hey You) Count To 3
TTITLE14=Shivaree - Goodnight Moon
TTITLE15=K D Lang - Summerfling
EXTD=
EXTT0=
EXTT1=
EXTT2=
EXTT3=
EXTT4=
EXTT5=
EXTT6=
EXTT7=
EXTT8=
EXTT9=
EXTT10=
EXTT11=
EXTT12=
EXTT13=
EXTT14=
EXTT15=
PLAYORDER=
